<?xml version="1.0" encoding="iso-8859-1"?>
<!-- Generator: Adobe Illustrator 19.0.0, SVG Export Plug-In . SVG Version: 6.00 Build 0)  -->
<svg version="1.1" id="Layer_1" xmlns="http://www.w3.org/2000/svg" xmlns:xlink="http://www.w3.org/1999/xlink" x="0px" y="0px"
	 viewBox="0 0 511.999 511.999" style="enable-background:new 0 0 511.999 511.999;" xml:space="preserve">
<g>
	<g>
		<path d="M506.43,421.536L291.573,49.394c-15.814-27.391-55.327-27.401-71.147,0L5.568,421.536
			c-15.814,27.391,3.934,61.616,35.574,61.616h429.714C502.485,483.153,522.25,448.938,506.43,421.536z M274.821,385.034
			c0,10.394-8.427,18.821-18.821,18.821s-18.821-8.427-18.821-18.821v-11.239c0-10.394,8.427-18.821,18.821-18.821
			s18.821,8.427,18.821,18.821V385.034z M274.821,311.702c0,10.394-8.427,18.821-18.821,18.821s-18.821-8.427-18.821-18.821v-107.89
			c0-10.394,8.427-18.821,18.821-18.821s18.821,8.427,18.821,18.821V311.702z"/>
	</g>
</g>
<g>
</g>
<g>
</g>
<g>
</g>
<g>
</g>
<g>
</g>
<g>
</g>
<g>
</g>
<g>
</g>
<g>
</g>
<g>
</g>
<g>
</g>
<g>
</g>
<g>
</g>
<g>
</g>
<g>
</g>
</svg>
